<?xml version="1.0" encoding="UTF-8" standalone="no"?><svg xmlns="http://www.w3.org/2000/svg" height="48" viewBox="0 0 48 48"><path d="M6.45.99h35.1q2.29 0 4.02 1.8Q47 4.45 47 6.45v35.1q0 1.99-1.4 3.62Q43.83 47 41.54 47H6.48q-2.45 0-4.24-1.99Q.99 43.38.99 41.55V6.45q0-2.29 1.8-4.02Q4.46.99 6.45.99z" fill="#fffeff"/><path d="M24 13.05c-6.01 0-10.89 4.5-10.89 10.03a9.66 9.66 0 003.52 7.39l.29 4.04a.34.34 0 00.51.27L21 32.73c.96.25 1.96.38 3 .38 6.02 0 10.9-4.49 10.9-10.03 0-5.54-4.88-10.03-10.9-10.03z" fill="#117bff"/><g fill="#117bff"><path d="M15.43 36.23l.73-.22.26.86.78-.44.37.68-1.62.89zM18.55 36.57l-.37-.68 2.4-1.32.14.03.19.05-.13.59.04.07-.07.04v.05l-.06-.01zm5.45-.82c-.71 0-1.43-.05-2.13-.15l.1-.76c.9.13 1.82.17 2.72.13l.03.76-.72.02zm1.86-.11l-.09-.77c.9-.1 1.8-.3 2.65-.59l.24.74c-.9.29-1.84.5-2.8.62zm-10.76-.5l-.8-2.68.74-.22.8 2.68zm14.63-.52l-.3-.71a13.5 13.5 0 002.39-1.29l.43.64c-.79.53-1.64.99-2.52 1.36zm3.44-2.04l-.48-.6c.7-.57 1.35-1.22 1.91-1.91l.6.48c-.6.74-1.28 1.42-2.03 2.03zm-19.32-.88c-.7-.67-1.3-1.42-1.82-2.21l.65-.42c.48.74 1.06 1.45 1.7 2.08zm22.03-2.08l-.64-.42c.5-.76.92-1.56 1.23-2.4l.72.27c-.33.9-.77 1.75-1.31 2.55zM11.45 28.5c-.45-.85-.8-1.76-1.03-2.68l.74-.19c.22.87.55 1.71.97 2.51zm26.1-2.52l-.75-.2c.23-.86.36-1.76.38-2.66l.76.02c-.02.96-.15 1.92-.4 2.84zm-27.36-1.29a12.04 12.04 0 01-.09-2.87l.77.07a11.35 11.35 0 00.08 2.69zm26.96-2.64c-.07-.9-.25-1.79-.52-2.64l.73-.24c.3.91.48 1.86.55 2.82zM11 20.8l-.75-.14c.17-.94.47-1.86.86-2.74l.7.31a11.3 11.3 0 00-.8 2.57zm25.23-2.42a11.8 11.8 0 00-1.35-2.33l.62-.46c.58.78 1.06 1.61 1.44 2.48zm-23.93-1.11l-.67-.38c.47-.82 1.04-1.6 1.7-2.32l.56.52c-.61.67-1.15 1.4-1.59 2.18zm21.9-2.06c-.6-.67-1.27-1.28-2-1.82l.45-.62c.78.57 1.5 1.22 2.12 1.93zm-19.55-.89l-.52-.56c.7-.65 1.47-1.22 2.3-1.72l.4.67a13.1 13.1 0 00-2.18 1.61zm16.65-1.53a13.6 13.6 0 00-2.44-1.18l.26-.72c.9.33 1.77.75 2.58 1.24zm-13.52-.6l-.34-.7c.85-.41 1.75-.75 2.67-1l.2.75c-.87.23-1.73.55-2.53.95zm10.05-.91c-.87-.24-1.77-.4-2.67-.47l.06-.77c.95.08 1.9.24 2.81.5zm-6.46-.28l-.14-.76c.9-.17 1.83-.25 2.76-.25h.09v.77H24c-.88 0-1.76.08-2.62.24z"/></g></svg>