<?xml version="1.0" encoding="UTF-8" standalone="no"?><svg xmlns="http://www.w3.org/2000/svg" height="48" viewBox="0 0 48 48"><path d="M6.45.99h35.1q2.29 0 4.02 1.8Q47 4.45 47 6.45v35.1q0 1.99-1.4 3.62Q43.83 47 41.54 47H6.48q-2.45 0-4.24-1.99Q.99 43.38.99 41.55V6.45q0-2.29 1.8-4.02Q4.46.99 6.45.99z" fill="#fffeff"/><path d="M24.27 10.84h-.07-.48c-1.16 0-5.07.33-6.92 4.47-.62 1.4-.47 3.76-.35 5.66l.04.68c-.1.05-.27.12-.55.12-.36 0-.8-.12-1.28-.34-.13-.07-.28-.1-.45-.1-.57 0-1.25.38-1.36.94-.07.4.1 1 1.4 1.5l.4.14c.55.17 1.35.43 1.57.95.12.27.07.61-.13 1.02l-.01.03c-.07.17-1.79 4.07-5.6 4.7-.29.05-.5.31-.48.6 0 .1.03.18.06.27.29.66 1.5 1.15 3.69 1.5.07.1.15.44.2.66l.15.65c.07.23.24.5.68.5.18 0 .4-.04.64-.1.36-.06.86-.16 1.49-.16.35 0 .7.03 1.07.09.7.12 1.3.54 2 1.04 1 .7 2.13 1.5 3.85 1.5h.34c1.72 0 2.85-.8 3.85-1.5.7-.5 1.3-.92 2-1.04a6.56 6.56 0 012.57.07c.26.05.47.08.63.08h.03c.33 0 .56-.18.65-.49l.16-.65c.04-.21.12-.56.2-.66 2.19-.34 3.4-.83 3.68-1.5a.77.77 0 00.06-.26.58.58 0 00-.49-.6c-3.8-.63-5.52-4.53-5.59-4.7l-.01-.03c-.2-.41-.25-.75-.13-1.02.22-.52 1.03-.78 1.56-.95.15-.05.3-.09.4-.14.96-.37 1.43-.83 1.42-1.36 0-.42-.33-.8-.85-.98a1.56 1.56 0 00-.59-.11c-.13 0-.34.02-.53.1-.45.22-.86.33-1.2.35a1.07 1.07 0 01-.48-.12l.04-.6v-.08c.12-1.9.27-4.27-.35-5.66a7.46 7.46 0 00-6.93-4.47z" fill="#117bff"/></svg>