<?xml version="1.0" encoding="UTF-8" standalone="no"?><svg xmlns="http://www.w3.org/2000/svg" height="48" viewBox="0 0 48 48"><path d="M6.45.99h35.1q2.29 0 4.02 1.8Q47 4.45 47 6.45v35.1q0 1.99-1.4 3.62Q43.83 47 41.54 47H6.48q-2.45 0-4.24-1.99Q.99 43.38.99 41.55V6.45q0-2.29 1.8-4.02Q4.46.99 6.45.99z" fill="#fffeff"/><g clip-path="url(#a)" transform="matrix(.06653 0 0 -.06653 -18.6 59.33)"><path d="M736.18 489.23c-5.21 2.6-30.83 15.21-35.6 16.95-4.78 1.74-8.26 2.61-11.73-2.6-3.48-5.22-13.46-16.96-16.5-20.44-3.04-3.47-6.08-3.91-11.3-1.3-5.2 2.6-22 8.1-41.9 25.86-15.49 13.82-25.95 30.89-28.99 36.1-3.04 5.22-.32 8.04 2.29 10.64 2.34 2.33 5.2 6.09 7.81 9.13 2.6 3.04 3.48 5.22 5.21 8.7 1.74 3.47.87 6.51-.43 9.12-1.3 2.6-11.72 28.26-16.07 38.7-4.23 10.15-8.52 8.78-11.72 8.94a209 209 0 01-9.99.18c-3.47 0-9.12-1.3-13.9-6.52-4.77-5.21-18.23-17.82-18.23-43.47s18.67-50.43 21.27-53.9c2.61-3.49 36.75-56.12 89.03-78.7a299.07 299.07 0 0129.7-10.97c12.48-3.97 23.84-3.4 32.82-2.06 10.02 1.49 30.83 12.6 35.18 24.77 4.35 12.18 4.35 22.61 3.05 24.79-1.3 2.17-4.78 3.47-9.99 6.08m-95.08-129.82h-.07c-31.1.01-61.61 8.37-88.23 24.16l-6.33 3.76-65.6-17.2 17.51 63.96-4.12 6.56a172.92 172.92 0 00-26.5 92.25c.03 95.57 77.8 173.33 173.42 173.33a172.16 172.16 0 00122.55-50.84 172.3 172.3 0 0050.72-122.63c-.04-95.58-77.8-173.34-173.34-173.34m147.53 320.87a207.2 207.2 0 01-147.53 61.16c-114.95 0-208.51-93.55-208.56-208.54a208.16 208.16 0 0127.83-104.26l-29.58-108.07 110.56 29a208.36 208.36 0 0199.66-25.38h.09c114.94 0 208.5 93.56 208.55 208.55a207.3 207.3 0 01-61.03 147.54" fill-rule="evenodd" fill="#117bff"/></g></svg>